<?xml version="1.0" encoding="iso-8859-1"?>
<!-- Generator: Adobe Illustrator 19.0.0, SVG Export Plug-In . SVG Version: 6.00 Build 0)  -->
<svg xmlns="http://www.w3.org/2000/svg" xmlns:xlink="http://www.w3.org/1999/xlink" version="1.1" id="Layer_1" x="0px" y="0px" viewBox="0 0 512 512" style="enable-background:new 0 0 512 512;" xml:space="preserve" width="512" height="512">
<g id="XMLID_1571_">
	<g id="XMLID_553_">
		<path id="XMLID_644_" d="M468.661,257.191l-2.004-6.691H482c16.542,0,30-13.458,30-30s-13.458-30-30-30h-33.32l-16.276-54.324    c-8.006-26.722-32.127-44.676-60.022-44.676H323.5c-5.522,0-10,4.477-10,10s4.478,10,10,10h48.882    c18.992,0,35.414,12.223,40.864,30.416L445.778,250.5h-38.24v-17c0-22.576-16.001-41.478-37.257-45.978    c3.192-5.54,5.029-11.955,5.029-18.795c0-20.828-16.944-37.772-37.772-37.772s-37.772,16.945-37.772,37.773    c0,6.84,1.837,13.255,5.029,18.795c-21.255,4.5-37.256,23.402-37.256,45.978v17h-23.076v-17c0-22.576-16.001-41.478-37.257-45.978    c3.192-5.54,5.029-11.955,5.029-18.795c0-20.828-16.944-37.772-37.772-37.772s-37.772,16.945-37.772,37.773    c0,6.84,1.837,13.255,5.029,18.795c-21.255,4.5-37.256,23.402-37.256,45.978v17h-38.24l32.532-108.584    c5.45-18.192,21.872-30.416,40.864-30.416H243.5c5.522,0,10-4.477,10-10s-4.478-10-10-10H139.618    c-27.896,0-52.017,17.954-60.022,44.676L63.32,190.5H30c-16.542,0-30,13.458-30,30s13.458,30,30,30h15.343l-2.005,6.691    C17.799,268.867,0,294.639,0,324.508v78.056c0,24.787,20.165,44.952,44.952,44.952h13.096v30.294    c0,17.475,14.216,31.69,31.69,31.69h20.619c17.475,0,31.69-14.216,31.69-31.69v-30.294H176c5.522,0,10-4.478,10-10    s-4.478-10-10-10h-43.952h-64H44.952C31.193,427.516,20,416.322,20,402.563v-78.056c0-29.771,24.221-53.992,53.992-53.992h364.016    c29.771,0,53.992,24.221,53.992,53.992v78.056c0,13.759-11.193,24.952-24.952,24.952h-23.096h-64H256.127c-5.522,0-10,4.478-10,10    s4.478,10,10,10h113.825v30.294c0,17.475,14.216,31.69,31.69,31.69h20.619c17.475,0,31.69-14.216,31.69-31.69v-30.294h13.096    c24.787,0,44.952-20.165,44.952-44.952v-78.056C512,294.639,494.201,268.867,468.661,257.191z M122.048,447.516v30.294    c0,6.446-5.244,11.69-11.69,11.69H89.738c-6.446,0-11.69-5.244-11.69-11.69v-30.294H122.048z M482,210.5c5.514,0,10,4.486,10,10    s-4.486,10-10,10h-21.335l-5.992-20H482z M337.538,150.955c9.8,0,17.772,7.973,17.772,17.773s-7.973,17.772-17.772,17.772    s-17.772-7.973-17.772-17.773C319.766,158.927,327.738,150.955,337.538,150.955z M287.538,233.5c0-14.888,12.112-27,27-27h46    c14.888,0,27,12.112,27,27v17h-100V233.5z M174.462,150.955c9.8,0,17.772,7.973,17.772,17.773s-7.973,17.772-17.772,17.772    s-17.772-7.973-17.772-17.773C156.689,158.927,164.662,150.955,174.462,150.955z M124.462,233.5c0-14.888,12.112-27,27-27h46    c14.888,0,27,12.112,27,27v17h-100V233.5z M30,230.5c-5.514,0-10-4.486-10-10s4.486-10,10-10h27.328l-5.992,20H30z     M433.952,477.81c0,6.446-5.244,11.69-11.69,11.69h-20.619c-6.446,0-11.69-5.244-11.69-11.69v-30.294h44V477.81z"/>
		<path id="XMLID_652_" d="M216,427.52c-2.63,0-5.21,1.061-7.07,2.92c-1.86,1.87-2.93,4.44-2.93,7.08c0,2.63,1.069,5.2,2.93,7.061    c1.86,1.87,4.44,2.939,7.07,2.939s5.21-1.069,7.069-2.939c1.86-1.86,2.931-4.431,2.931-7.061c0-2.64-1.07-5.21-2.931-7.08    C221.21,428.58,218.63,427.52,216,427.52z"/>
		<path id="XMLID_653_" d="M283.5,111.5c2.63,0,5.21-1.07,7.069-2.93c1.86-1.86,2.931-4.44,2.931-7.07c0-2.63-1.07-5.21-2.931-7.07    c-1.859-1.86-4.439-2.93-7.069-2.93s-5.21,1.07-7.07,2.93c-1.86,1.86-2.93,4.44-2.93,7.07c0,2.63,1.069,5.21,2.93,7.07    S280.87,111.5,283.5,111.5z"/>
		<path id="XMLID_656_" d="M346,357.508v-21.516c0-15.021-12.221-27.242-27.242-27.242H193.242    c-15.021,0-27.242,12.221-27.242,27.242v21.516c0,15.021,12.221,27.242,27.242,27.242h125.516    C333.779,384.75,346,372.529,346,357.508z M326,335.992v21.516c0,3.993-3.249,7.242-7.242,7.242H306v-36h12.758    C322.751,328.75,326,331.999,326,335.992z M266,328.75h20v36h-20V328.75z M246,364.75h-20v-36h20V364.75z M186,357.508v-21.516    c0-3.993,3.249-7.242,7.242-7.242H206v36h-12.758C189.249,364.75,186,361.501,186,357.508z"/>
		<path id="XMLID_662_" d="M48.048,346.75c0,26.468,21.532,48,48,48s48-21.532,48-48s-21.532-48-48-48S48.048,320.282,48.048,346.75    z M124.048,346.75c0,15.439-12.561,28-28,28s-28-12.561-28-28s12.561-28,28-28S124.048,331.311,124.048,346.75z"/>
		<path id="XMLID_665_" d="M415.952,394.75c26.468,0,48-21.532,48-48s-21.532-48-48-48s-48,21.532-48,48    S389.484,394.75,415.952,394.75z M415.952,318.75c15.439,0,28,12.561,28,28s-12.561,28-28,28s-28-12.561-28-28    S400.513,318.75,415.952,318.75z"/>
		<path id="XMLID_938_" d="M303.793,71.5h180.872c5.522,0,10-4.477,10-10c0-32.533-26.467-59-59-59    c-18.393,0-35.437,8.491-46.506,22.689c-4.742-1.962-9.859-3-15.032-3c-18.222,0-33.587,12.462-38.022,29.311h-32.312    c-5.522,0-10,4.477-10,10S298.271,71.5,303.793,71.5z M374.127,42.189c4.407,0,8.561,1.451,12.01,4.197    c2.326,1.851,5.354,2.572,8.266,1.966c2.91-0.606,5.4-2.476,6.795-5.102c6.794-12.8,20.002-20.751,34.468-20.751    c18.049,0,33.273,12.325,37.701,29H357.612C361.002,45.922,367.137,42.189,374.127,42.189z"/>
		<path id="XMLID_953_" d="M48.241,71.5h180.871c5.522,0,10-4.477,10-10c0-32.533-26.468-59-59-59    c-18.393,0-35.437,8.49-46.506,22.688c-4.742-1.962-9.859-2.999-15.032-2.999c-18.222,0-33.587,12.462-38.022,29.311H48.241    c-5.522,0-10,4.477-10,10S42.719,71.5,48.241,71.5z M118.574,42.189c4.408,0,8.561,1.451,12.009,4.196    c2.326,1.852,5.354,2.575,8.267,1.967c2.91-0.605,5.4-2.475,6.795-5.102c6.794-12.8,20.002-20.751,34.468-20.751    c18.049,0,33.273,12.325,37.701,29H102.06C105.449,45.922,111.584,42.189,118.574,42.189z"/>
	</g>
</g>















</svg>
